ffmpeg version 3.4.8-0ubuntu0.2 Copyright (c) 2000-2020 the FFmpeg developers
  built with gcc 7 (Ubuntu 7.5.0-3ubuntu1~18.04)
  configuration: --prefix=/usr --extra-version=0ubuntu0.2 --toolchain=hardened --libdir=/usr/lib/x86_64-linux-gnu --incdir=/usr/include/x86_64-linux-gnu --enable-gpl --disable-stripping --enable-avresample --enable-avisynth --enable-gnutls --enable-ladspa --enable-libass --enable-libbluray --enable-libbs2b --enable-libcaca --enable-libcdio --enable-libflite --enable-libfontconfig --enable-libfreetype --enable-libfribidi --enable-libgme --enable-libgsm --enable-libmp3lame --enable-libmysofa --enable-libopenjpeg --enable-libopenmpt --enable-libopus --enable-libpulse --enable-librubberband --enable-librsvg --enable-libshine --enable-libsnappy --enable-libsoxr --enable-libspeex --enable-libssh --enable-libtheora --enable-libtwolame --enable-libvorbis --enable-libvpx --enable-libwavpack --enable-libwebp --enable-libx265 --enable-libxml2 --enable-libxvid --enable-libzmq --enable-libzvbi --enable-omx --enable-openal --enable-opengl --enable-sdl2 --enable-libdc1394 --enable-libdrm --enable-libiec61883 --enable-chromaprint --enable-frei0r --enable-libopencv --enable-libx264 --enable-shared
  libavutil      55. 78.100 / 55. 78.100
  libavcodec     57.107.100 / 57.107.100
  libavformat    57. 83.100 / 57. 83.100
  libavdevice    57. 10.100 / 57. 10.100
  libavfilter     6.107.100 /  6.107.100
  libavresample   3.  7.  0 /  3.  7.  0
  libswscale      4.  8.100 /  4.  8.100
  libswresample   2.  9.100 /  2.  9.100
  libpostproc    54.  7.100 / 54.  7.100
[rawvideo @ 0x55a649271a20] Estimating duration from bitrate, this may be inaccurate
Input #0, rawvideo, from '../../SVC-Encoder-20220109T061506Z-001/SVC-Encoder/Dataset/RollerCoaster/6f_2x2/tile_yuv/f3_t1_480x480.yuv':
  Duration: 00:00:10.00, start: 0.000000, bitrate: 82944 kb/s
    Stream #0:0: Video: rawvideo (I420 / 0x30323449), yuv420p, 480x480, 82944 kb/s, 30 tbr, 30 tbn, 30 tbc
Stream mapping:
  Stream #0:0 -> #0:0 (rawvideo (native) -> h264 (libx264))
Press [q] to stop, [?] for help
[libx264 @ 0x55a64927ec60] using cpu capabilities: MMX2 SSE2Fast LZCNT SSSE3 SSE4.2 AVX
[libx264 @ 0x55a64927ec60] profile High, level 3.0
Output #0, rawvideo, to 'RollerCoaster_f3_t1_480x480_x264_QP_20.h264':
  Metadata:
    encoder         : Lavf57.83.100
    Stream #0:0: Video: h264 (libx264), yuv420p, 480x480, q=-1--1, 30 fps, 30 tbn, 30 tbc
    Metadata:
      encoder         : Lavc57.107.100 libx264
    Side data:
      cpb: bitrate max/min/avg: 0/0/0 buffer size: 0 vbv_delay: -1
frame=  108 fps=0.0 q=26.0 PSNR=Y:nan U:nan V:nan *:nan size=     161kB time=00:00:02.16 bitrate= 606.9kbits/s speed=4.23x    frame=  176 fps=173 q=26.0 PSNR=Y:nan U:nan V:nan *:nan size=     256kB time=00:00:04.43 bitrate= 473.0kbits/s speed=4.36x    frame=  249 fps=164 q=26.0 PSNR=Y:nan U:nan V:nan *:nan size=     256kB time=00:00:06.86 bitrate= 305.4kbits/s speed=4.52x    frame=  300 fps=142 q=26.0 LPSNR=Y:inf U:inf V:inf *:inf size=     678kB time=00:00:09.93 bitrate= 559.3kbits/s speed= 4.7x    
video:678kB audio:0kB subtitle:0kB other streams:0kB global headers:0kB muxing overhead: 0.000000%
[libx264 @ 0x55a64927ec60] frame I:2     Avg QP:18.96  size: 24066  PSNR Mean Y:48.44 U:49.51 V:49.07 Avg:48.70 Global:48.63
[libx264 @ 0x55a64927ec60] frame P:76    Avg QP:19.93  size:  5548  PSNR Mean Y:46.69 U:49.07 V:48.26 Avg:47.25 Global:47.21
[libx264 @ 0x55a64927ec60] frame B:222   Avg QP:25.47  size:  1012  PSNR Mean Y:45.35 U:48.76 V:47.95 Avg:46.13 Global:46.12
[libx264 @ 0x55a64927ec60] consecutive B-frames:  1.0%  0.7%  1.0% 97.3%
[libx264 @ 0x55a64927ec60] mb I  I16..4: 34.9% 36.2% 28.9%
[libx264 @ 0x55a64927ec60] mb P  I16..4:  2.9%  1.4%  0.3%  P16..4: 30.6% 20.3%  9.2%  0.0%  0.0%    skip:35.4%
[libx264 @ 0x55a64927ec60] mb B  I16..4:  0.0%  0.2%  0.1%  B16..8: 28.2%  7.2%  0.9%  direct: 0.8%  skip:62.5%  L0:42.2% L1:48.7% BI: 9.1%
[libx264 @ 0x55a64927ec60] 8x8 transform intra:34.2% inter:58.5%
[libx264 @ 0x55a64927ec60] coded y,uvDC,uvAC intra: 40.2% 62.1% 33.0% inter: 10.9% 10.2% 0.7%
[libx264 @ 0x55a64927ec60] i16 v,h,dc,p: 53% 25% 13%  8%
[libx264 @ 0x55a64927ec60] i8 v,h,dc,ddl,ddr,vr,hd,vl,hu: 28% 15% 25%  5%  4%  7%  5%  4%  7%
[libx264 @ 0x55a64927ec60] i4 v,h,dc,ddl,ddr,vr,hd,vl,hu: 21% 28% 12%  5%  6%  6% 11%  4%  7%
[libx264 @ 0x55a64927ec60] i8c dc,h,v,p: 41% 22% 26% 11%
[libx264 @ 0x55a64927ec60] Weighted P-Frames: Y:0.0% UV:0.0%
[libx264 @ 0x55a64927ec60] ref P L0: 55.9% 11.6% 24.2%  8.2%
[libx264 @ 0x55a64927ec60] ref B L0: 74.7% 19.9%  5.4%
[libx264 @ 0x55a64927ec60] ref B L1: 85.6% 14.4%
[libx264 @ 0x55a64927ec60] PSNR Mean Y:45.711 U:48.846 V:48.034 Avg:46.434 Global:46.384 kb/s:555.60
